<mxfile host="app.diagrams.net" modified="2021-01-18T14:13:35.051Z" agent="5.0 (Windows NT 6.1; WOW64) AppleWebKit/537.36 (KHTML, like Gecko) Chrome/87.0.4280.141 Safari/537.36" etag="yt5Kfit5VBN_ZEVXGSRA" version="14.2.4" type="github">
  <diagram id="POvenSWsjn2r-2rkdHrZ" name="Page-1">
    <mxGraphModel dx="1422" dy="737" grid="1" gridSize="10" guides="1" tooltips="1" connect="1" arrows="1" fold="1" page="1" pageScale="1" pageWidth="827" pageHeight="1169" math="0" shadow="0">
      <root>
        <mxCell id="0" />
        <mxCell id="1" parent="0" />
        <mxCell id="3DRSOb2wShM1h3xA2iuY-1" value="" style="rounded=0;whiteSpace=wrap;html=1;fontSize=14;" parent="1" vertex="1">
          <mxGeometry x="50" y="350" width="710" height="200" as="geometry" />
        </mxCell>
        <mxCell id="3DRSOb2wShM1h3xA2iuY-2" value="user3_pc" style="rounded=0;whiteSpace=wrap;html=1;fontSize=14;" parent="1" vertex="1">
          <mxGeometry x="340" y="160" width="120" height="60" as="geometry" />
        </mxCell>
        <mxCell id="3DRSOb2wShM1h3xA2iuY-3" value="ENV1" style="rounded=0;whiteSpace=wrap;html=1;fontSize=14;" parent="1" vertex="1">
          <mxGeometry x="30" y="690" width="120" height="60" as="geometry" />
        </mxCell>
        <mxCell id="3DRSOb2wShM1h3xA2iuY-7" value="ENV2" style="rounded=0;whiteSpace=wrap;html=1;fontSize=14;" parent="1" vertex="1">
          <mxGeometry x="170" y="690" width="120" height="60" as="geometry" />
        </mxCell>
        <mxCell id="3DRSOb2wShM1h3xA2iuY-8" value="ENV3" style="rounded=0;whiteSpace=wrap;html=1;fontSize=14;" parent="1" vertex="1">
          <mxGeometry x="320" y="690" width="120" height="60" as="geometry" />
        </mxCell>
        <mxCell id="3DRSOb2wShM1h3xA2iuY-9" value="ENV4" style="rounded=0;whiteSpace=wrap;html=1;fontSize=14;" parent="1" vertex="1">
          <mxGeometry x="470" y="690" width="120" height="60" as="geometry" />
        </mxCell>
        <mxCell id="3DRSOb2wShM1h3xA2iuY-10" value="ENV5" style="rounded=0;whiteSpace=wrap;html=1;fontSize=14;" parent="1" vertex="1">
          <mxGeometry x="650" y="690" width="120" height="60" as="geometry" />
        </mxCell>
        <mxCell id="3DRSOb2wShM1h3xA2iuY-12" value="user2_pc" style="rounded=0;whiteSpace=wrap;html=1;fontSize=14;" parent="1" vertex="1">
          <mxGeometry x="180" y="160" width="120" height="60" as="geometry" />
        </mxCell>
        <mxCell id="3DRSOb2wShM1h3xA2iuY-13" value="user4_pc" style="rounded=0;whiteSpace=wrap;html=1;fontSize=14;" parent="1" vertex="1">
          <mxGeometry x="500" y="160" width="120" height="60" as="geometry" />
        </mxCell>
        <mxCell id="3DRSOb2wShM1h3xA2iuY-14" value="user5_pc" style="rounded=0;whiteSpace=wrap;html=1;fontSize=14;" parent="1" vertex="1">
          <mxGeometry x="650" y="160" width="120" height="60" as="geometry" />
        </mxCell>
        <mxCell id="3DRSOb2wShM1h3xA2iuY-15" value="user1_pc" style="rounded=0;whiteSpace=wrap;html=1;fontSize=14;" parent="1" vertex="1">
          <mxGeometry x="20" y="160" width="120" height="60" as="geometry" />
        </mxCell>
        <mxCell id="3DRSOb2wShM1h3xA2iuY-16" value="" style="endArrow=classic;html=1;entryX=0.073;entryY=0.02;entryDx=0;entryDy=0;entryPerimeter=0;exitX=0.5;exitY=1;exitDx=0;exitDy=0;fontSize=14;" parent="1" target="3DRSOb2wShM1h3xA2iuY-1" edge="1" source="3DRSOb2wShM1h3xA2iuY-15">
          <mxGeometry width="50" height="50" relative="1" as="geometry">
            <mxPoint x="79.5" y="180" as="sourcePoint" />
            <mxPoint x="79.5" y="270" as="targetPoint" />
          </mxGeometry>
        </mxCell>
        <mxCell id="3DRSOb2wShM1h3xA2iuY-17" value="" style="endArrow=classic;html=1;entryX=0.3;entryY=0.005;entryDx=0;entryDy=0;entryPerimeter=0;exitX=0.5;exitY=1;exitDx=0;exitDy=0;fontSize=14;" parent="1" target="3DRSOb2wShM1h3xA2iuY-1" edge="1" source="3DRSOb2wShM1h3xA2iuY-12">
          <mxGeometry width="50" height="50" relative="1" as="geometry">
            <mxPoint x="250" y="170" as="sourcePoint" />
            <mxPoint x="250" y="390" as="targetPoint" />
          </mxGeometry>
        </mxCell>
        <mxCell id="3DRSOb2wShM1h3xA2iuY-18" value="" style="endArrow=classic;html=1;entryX=0.5;entryY=0;entryDx=0;entryDy=0;exitX=0.5;exitY=1;exitDx=0;exitDy=0;fontSize=14;" parent="1" target="3DRSOb2wShM1h3xA2iuY-1" edge="1" source="3DRSOb2wShM1h3xA2iuY-2">
          <mxGeometry width="50" height="50" relative="1" as="geometry">
            <mxPoint x="400" y="170" as="sourcePoint" />
            <mxPoint x="480" y="240" as="targetPoint" />
          </mxGeometry>
        </mxCell>
        <mxCell id="3DRSOb2wShM1h3xA2iuY-19" value="" style="endArrow=classic;html=1;exitX=0.5;exitY=1;exitDx=0;exitDy=0;exitPerimeter=0;entryX=0.75;entryY=0;entryDx=0;entryDy=0;fontSize=14;" parent="1" source="3DRSOb2wShM1h3xA2iuY-13" edge="1" target="3DRSOb2wShM1h3xA2iuY-1">
          <mxGeometry width="50" height="50" relative="1" as="geometry">
            <mxPoint x="570" y="180" as="sourcePoint" />
            <mxPoint x="399" y="270" as="targetPoint" />
            <Array as="points" />
          </mxGeometry>
        </mxCell>
        <mxCell id="3DRSOb2wShM1h3xA2iuY-20" value="" style="endArrow=classic;html=1;entryX=0.973;entryY=-0.02;entryDx=0;entryDy=0;entryPerimeter=0;exitX=0.5;exitY=1;exitDx=0;exitDy=0;fontSize=14;" parent="1" target="pVgQ2WiulGgzeKrbE1yl-2" edge="1" source="3DRSOb2wShM1h3xA2iuY-14">
          <mxGeometry width="50" height="50" relative="1" as="geometry">
            <mxPoint x="705" y="170" as="sourcePoint" />
            <mxPoint x="755" y="240" as="targetPoint" />
          </mxGeometry>
        </mxCell>
        <mxCell id="3DRSOb2wShM1h3xA2iuY-21" value="" style="endArrow=classic;html=1;entryX=0.442;entryY=0;entryDx=0;entryDy=0;entryPerimeter=0;exitX=0.094;exitY=1.02;exitDx=0;exitDy=0;exitPerimeter=0;fontSize=14;" parent="1" target="3DRSOb2wShM1h3xA2iuY-3" edge="1" source="3DRSOb2wShM1h3xA2iuY-1">
          <mxGeometry width="50" height="50" relative="1" as="geometry">
            <mxPoint x="400" y="330" as="sourcePoint" />
            <mxPoint x="360" y="380" as="targetPoint" />
          </mxGeometry>
        </mxCell>
        <mxCell id="3DRSOb2wShM1h3xA2iuY-22" value="" style="endArrow=classic;html=1;entryX=0.5;entryY=0;entryDx=0;entryDy=0;exitX=0.318;exitY=1;exitDx=0;exitDy=0;exitPerimeter=0;fontSize=14;" parent="1" target="3DRSOb2wShM1h3xA2iuY-7" edge="1" source="3DRSOb2wShM1h3xA2iuY-1">
          <mxGeometry width="50" height="50" relative="1" as="geometry">
            <mxPoint x="400" y="330" as="sourcePoint" />
            <mxPoint x="320" y="390" as="targetPoint" />
          </mxGeometry>
        </mxCell>
        <mxCell id="3DRSOb2wShM1h3xA2iuY-23" value="" style="endArrow=classic;html=1;entryX=0.45;entryY=0.05;entryDx=0;entryDy=0;entryPerimeter=0;exitX=0.5;exitY=1;exitDx=0;exitDy=0;fontSize=14;" parent="1" target="3DRSOb2wShM1h3xA2iuY-8" edge="1" source="3DRSOb2wShM1h3xA2iuY-1">
          <mxGeometry width="50" height="50" relative="1" as="geometry">
            <mxPoint x="400" y="370" as="sourcePoint" />
            <mxPoint x="110" y="390" as="targetPoint" />
          </mxGeometry>
        </mxCell>
        <mxCell id="3DRSOb2wShM1h3xA2iuY-24" value="" style="endArrow=classic;html=1;entryX=0.5;entryY=0;entryDx=0;entryDy=0;exitX=0.75;exitY=1;exitDx=0;exitDy=0;fontSize=14;" parent="1" target="3DRSOb2wShM1h3xA2iuY-9" edge="1" source="3DRSOb2wShM1h3xA2iuY-1">
          <mxGeometry width="50" height="50" relative="1" as="geometry">
            <mxPoint x="400" y="330" as="sourcePoint" />
            <mxPoint x="460" y="390" as="targetPoint" />
          </mxGeometry>
        </mxCell>
        <mxCell id="3DRSOb2wShM1h3xA2iuY-25" value="" style="endArrow=classic;html=1;exitX=0.962;exitY=1;exitDx=0;exitDy=0;entryX=0.442;entryY=-0.017;entryDx=0;entryDy=0;entryPerimeter=0;exitPerimeter=0;fontSize=14;" parent="1" source="3DRSOb2wShM1h3xA2iuY-1" target="3DRSOb2wShM1h3xA2iuY-10" edge="1">
          <mxGeometry width="50" height="50" relative="1" as="geometry">
            <mxPoint x="585" y="310" as="sourcePoint" />
            <mxPoint x="535" y="360" as="targetPoint" />
          </mxGeometry>
        </mxCell>
        <mxCell id="pVgQ2WiulGgzeKrbE1yl-1" value="RF PC机 10.232.26.64" style="text;html=1;strokeColor=none;fillColor=none;align=center;verticalAlign=middle;whiteSpace=wrap;rounded=0;fontSize=14;" vertex="1" parent="1">
          <mxGeometry x="746" y="450" width="180" height="20" as="geometry" />
        </mxCell>
        <mxCell id="pVgQ2WiulGgzeKrbE1yl-2" value="flask Server" style="rounded=0;whiteSpace=wrap;html=1;fontSize=14;" vertex="1" parent="1">
          <mxGeometry x="60" y="350" width="640" height="50" as="geometry" />
        </mxCell>
        <mxCell id="pVgQ2WiulGgzeKrbE1yl-3" value="RF Code Source1&lt;br style=&quot;font-size: 14px;&quot;&gt;&lt;br style=&quot;font-size: 14px;&quot;&gt;function_testcases" style="rounded=0;whiteSpace=wrap;html=1;fontSize=14;" vertex="1" parent="1">
          <mxGeometry x="60" y="490" width="120" height="60" as="geometry" />
        </mxCell>
        <mxCell id="pVgQ2WiulGgzeKrbE1yl-4" value="RF Code Source2&lt;br style=&quot;font-size: 14px;&quot;&gt;&lt;br style=&quot;font-size: 14px;&quot;&gt;function_testcases" style="rounded=0;whiteSpace=wrap;html=1;fontSize=14;" vertex="1" parent="1">
          <mxGeometry x="200" y="490" width="120" height="60" as="geometry" />
        </mxCell>
        <mxCell id="pVgQ2WiulGgzeKrbE1yl-5" value="RF Code Source3&lt;br style=&quot;font-size: 14px;&quot;&gt;&lt;br style=&quot;font-size: 14px;&quot;&gt;function_testcases" style="rounded=0;whiteSpace=wrap;html=1;fontSize=14;" vertex="1" parent="1">
          <mxGeometry x="330" y="490" width="120" height="60" as="geometry" />
        </mxCell>
        <mxCell id="pVgQ2WiulGgzeKrbE1yl-6" value="RF Code Source4&lt;br style=&quot;font-size: 14px;&quot;&gt;&lt;br style=&quot;font-size: 14px;&quot;&gt;function_testcases" style="rounded=0;whiteSpace=wrap;html=1;fontSize=14;" vertex="1" parent="1">
          <mxGeometry x="480" y="490" width="120" height="60" as="geometry" />
        </mxCell>
        <mxCell id="pVgQ2WiulGgzeKrbE1yl-7" value="RF Code Source5&lt;br style=&quot;font-size: 14px;&quot;&gt;&lt;br style=&quot;font-size: 14px;&quot;&gt;function_testcases" style="rounded=0;whiteSpace=wrap;html=1;fontSize=14;" vertex="1" parent="1">
          <mxGeometry x="630" y="490" width="120" height="60" as="geometry" />
        </mxCell>
        <mxCell id="pVgQ2WiulGgzeKrbE1yl-8" value="" style="endArrow=classic;html=1;entryX=0.5;entryY=0;entryDx=0;entryDy=0;exitX=0.25;exitY=1;exitDx=0;exitDy=0;fontSize=14;" edge="1" parent="1" source="pVgQ2WiulGgzeKrbE1yl-2" target="pVgQ2WiulGgzeKrbE1yl-3">
          <mxGeometry width="50" height="50" relative="1" as="geometry">
            <mxPoint x="390" y="400" as="sourcePoint" />
            <mxPoint x="440" y="350" as="targetPoint" />
          </mxGeometry>
        </mxCell>
        <mxCell id="pVgQ2WiulGgzeKrbE1yl-10" value="" style="endArrow=classic;html=1;entryX=0.5;entryY=0;entryDx=0;entryDy=0;exitX=0.434;exitY=1;exitDx=0;exitDy=0;exitPerimeter=0;fontSize=14;" edge="1" parent="1" source="pVgQ2WiulGgzeKrbE1yl-2" target="pVgQ2WiulGgzeKrbE1yl-4">
          <mxGeometry width="50" height="50" relative="1" as="geometry">
            <mxPoint x="390" y="400" as="sourcePoint" />
            <mxPoint x="440" y="350" as="targetPoint" />
          </mxGeometry>
        </mxCell>
        <mxCell id="pVgQ2WiulGgzeKrbE1yl-11" value="" style="endArrow=classic;html=1;fontSize=14;" edge="1" parent="1" source="pVgQ2WiulGgzeKrbE1yl-2" target="pVgQ2WiulGgzeKrbE1yl-5">
          <mxGeometry width="50" height="50" relative="1" as="geometry">
            <mxPoint x="390" y="400" as="sourcePoint" />
            <mxPoint x="440" y="350" as="targetPoint" />
          </mxGeometry>
        </mxCell>
        <mxCell id="pVgQ2WiulGgzeKrbE1yl-12" value="" style="endArrow=classic;html=1;entryX=0.5;entryY=0;entryDx=0;entryDy=0;exitX=0.725;exitY=1;exitDx=0;exitDy=0;exitPerimeter=0;fontSize=14;" edge="1" parent="1" source="pVgQ2WiulGgzeKrbE1yl-2" target="pVgQ2WiulGgzeKrbE1yl-6">
          <mxGeometry width="50" height="50" relative="1" as="geometry">
            <mxPoint x="390" y="400" as="sourcePoint" />
            <mxPoint x="440" y="350" as="targetPoint" />
          </mxGeometry>
        </mxCell>
        <mxCell id="pVgQ2WiulGgzeKrbE1yl-13" value="" style="endArrow=classic;html=1;entryX=0.5;entryY=0;entryDx=0;entryDy=0;exitX=0.92;exitY=1.04;exitDx=0;exitDy=0;exitPerimeter=0;fontSize=14;" edge="1" parent="1" source="pVgQ2WiulGgzeKrbE1yl-2" target="pVgQ2WiulGgzeKrbE1yl-7">
          <mxGeometry width="50" height="50" relative="1" as="geometry">
            <mxPoint x="390" y="400" as="sourcePoint" />
            <mxPoint x="440" y="350" as="targetPoint" />
          </mxGeometry>
        </mxCell>
        <mxCell id="pVgQ2WiulGgzeKrbE1yl-14" value="1、版本升级、版本回退&lt;br style=&quot;font-size: 14px;&quot;&gt;2、推荐UME网管、迁移网管&lt;br style=&quot;font-size: 14px;&quot;&gt;3、创建网元、删除网元&lt;br style=&quot;font-size: 14px;&quot;&gt;4、开站&lt;br style=&quot;font-size: 14px;&quot;&gt;5、配置NSA小区&lt;br style=&quot;font-size: 14px;&quot;&gt;6、配置小区切换&lt;br style=&quot;font-size: 14px;&quot;&gt;&amp;nbsp; &amp;nbsp; &amp;nbsp;........" style="rounded=0;whiteSpace=wrap;html=1;align=left;fontSize=14;" vertex="1" parent="1">
          <mxGeometry x="770" y="550" width="220" height="130" as="geometry" />
        </mxCell>
        <mxCell id="pVgQ2WiulGgzeKrbE1yl-19" value="run.bat" style="text;html=1;strokeColor=none;fillColor=none;align=center;verticalAlign=middle;whiteSpace=wrap;rounded=0;fontSize=14;" vertex="1" parent="1">
          <mxGeometry x="130" y="430" width="40" height="20" as="geometry" />
        </mxCell>
        <mxCell id="pVgQ2WiulGgzeKrbE1yl-20" value="run.bat" style="text;html=1;strokeColor=none;fillColor=none;align=center;verticalAlign=middle;whiteSpace=wrap;rounded=0;fontSize=14;" vertex="1" parent="1">
          <mxGeometry x="250" y="430" width="40" height="20" as="geometry" />
        </mxCell>
        <mxCell id="pVgQ2WiulGgzeKrbE1yl-25" value="run.bat" style="text;html=1;strokeColor=none;fillColor=none;align=center;verticalAlign=middle;whiteSpace=wrap;rounded=0;fontSize=14;" vertex="1" parent="1">
          <mxGeometry x="340" y="440" width="40" height="20" as="geometry" />
        </mxCell>
        <mxCell id="pVgQ2WiulGgzeKrbE1yl-26" value="run.bat" style="text;html=1;strokeColor=none;fillColor=none;align=center;verticalAlign=middle;whiteSpace=wrap;rounded=0;fontSize=14;" vertex="1" parent="1">
          <mxGeometry x="490" y="440" width="40" height="20" as="geometry" />
        </mxCell>
        <mxCell id="pVgQ2WiulGgzeKrbE1yl-27" value="run.bat" style="text;html=1;strokeColor=none;fillColor=none;align=center;verticalAlign=middle;whiteSpace=wrap;rounded=0;fontSize=14;" vertex="1" parent="1">
          <mxGeometry x="620" y="440" width="40" height="20" as="geometry" />
        </mxCell>
        <mxCell id="pVgQ2WiulGgzeKrbE1yl-29" value="用户在界面上选择需要操作的基站和想要执行的功能，并通过http下发给RF部署机" style="rounded=0;whiteSpace=wrap;html=1;align=left;fontSize=14;" vertex="1" parent="1">
          <mxGeometry x="760" y="250" width="310" height="60" as="geometry" />
        </mxCell>
        <mxCell id="pVgQ2WiulGgzeKrbE1yl-30" value="http" style="text;html=1;strokeColor=none;fillColor=none;align=center;verticalAlign=middle;whiteSpace=wrap;rounded=0;fontSize=14;" vertex="1" parent="1">
          <mxGeometry x="50" y="270" width="40" height="20" as="geometry" />
        </mxCell>
        <mxCell id="pVgQ2WiulGgzeKrbE1yl-31" value="http" style="text;html=1;strokeColor=none;fillColor=none;align=center;verticalAlign=middle;whiteSpace=wrap;rounded=0;fontSize=14;" vertex="1" parent="1">
          <mxGeometry x="210" y="270" width="40" height="20" as="geometry" />
        </mxCell>
        <mxCell id="pVgQ2WiulGgzeKrbE1yl-32" value="http" style="text;html=1;strokeColor=none;fillColor=none;align=center;verticalAlign=middle;whiteSpace=wrap;rounded=0;fontSize=14;" vertex="1" parent="1">
          <mxGeometry x="360" y="270" width="40" height="20" as="geometry" />
        </mxCell>
        <mxCell id="pVgQ2WiulGgzeKrbE1yl-33" value="http" style="text;html=1;strokeColor=none;fillColor=none;align=center;verticalAlign=middle;whiteSpace=wrap;rounded=0;fontSize=14;" vertex="1" parent="1">
          <mxGeometry x="520" y="280" width="40" height="20" as="geometry" />
        </mxCell>
        <mxCell id="pVgQ2WiulGgzeKrbE1yl-34" value="http" style="text;html=1;strokeColor=none;fillColor=none;align=center;verticalAlign=middle;whiteSpace=wrap;rounded=0;fontSize=14;" vertex="1" parent="1">
          <mxGeometry x="650" y="280" width="40" height="20" as="geometry" />
        </mxCell>
      </root>
    </mxGraphModel>
  </diagram>
</mxfile>
